<svg width="176" height="20" viewBox="0 0 176 20" fill="none" xmlns="http://www.w3.org/2000/svg">
<path d="M5.44995 8.79099H9.31294V10.3779H5.44995V14.2409H3.86299V10.3779H2.64392e-06V8.79099H3.86299V4.928H5.44995V8.79099ZM9.42321 2.69373H19.6549V4.28069L13.7247 16.8928H11.8454L17.7339 4.36421H9.42321V2.69373ZM28.4063 7.86399e-05H30.0351C29.1581 1.30862 28.4759 2.81902 27.9887 4.53126C27.5015 6.2435 27.2579 7.92791 27.2579 9.58447C27.2579 11.241 27.5015 12.9254 27.9887 14.6377C28.4759 16.3499 29.1581 17.8603 30.0351 19.1689H28.4063C27.4737 17.8185 26.7359 16.3012 26.193 14.6168C25.65 12.9185 25.3786 11.241 25.3786 9.58447C25.3786 7.92791 25.65 6.25742 26.193 4.57302C26.7359 2.8747 27.4737 1.35038 28.4063 7.86399e-05ZM30.6065 7.09962C30.6065 5.63795 31.0868 4.49646 32.0473 3.67514C33.0218 2.85382 34.2398 2.44316 35.7015 2.44316C37.7061 2.44316 39.2025 3.06959 40.1909 4.32245C41.1932 5.56139 41.6943 7.30843 41.6943 9.56358C41.6943 12.0693 41.0957 13.9625 39.8986 15.2432C38.7153 16.51 37.1632 17.1434 35.2421 17.1434C34.0032 17.1434 32.8547 16.8719 31.7967 16.329V14.6586C32.8269 15.2015 33.9614 15.4729 35.2003 15.4729C36.5089 15.4729 37.5947 15.0553 38.4578 14.2201C39.3348 13.3709 39.822 12.0275 39.9195 10.19C38.5552 11.0949 37.0727 11.5473 35.4718 11.5473C34.1772 11.5473 33.0426 11.1575 32.0682 10.3779C31.0937 9.58447 30.6065 8.49169 30.6065 7.09962ZM35.8268 4.07188C34.7966 4.07188 33.9614 4.30853 33.321 4.78183C32.6946 5.25513 32.3814 5.99989 32.3814 7.0161C32.3814 8.04623 32.7085 8.79099 33.3628 9.25037C34.0171 9.69583 34.8662 9.91856 35.9103 9.91856C37.4555 9.91856 38.7849 9.42438 39.8986 8.43601C39.6341 5.52659 38.2768 4.07188 35.8268 4.07188ZM52.9934 6.30615C52.9934 7.03002 52.7985 7.68429 52.4087 8.26896C52.0329 8.83971 51.5387 9.22949 50.9262 9.4383C51.6501 9.66103 52.2695 10.0717 52.7846 10.6703C53.3136 11.2549 53.5781 12.0415 53.5781 13.0298C53.5781 14.3523 53.0839 15.3685 52.0955 16.0785C51.1211 16.7884 49.8821 17.1434 48.3787 17.1434C46.4716 17.1434 44.822 16.8302 43.4299 16.2037V14.4706C44.7802 15.1667 46.3811 15.5077 48.2325 15.4938C50.6687 15.4938 51.8867 14.6446 51.8867 12.9463C51.8867 11.248 50.7313 10.3988 48.4205 10.3988H46.2488V8.72834L48.2325 8.74923C49.2348 8.74923 49.9935 8.54041 50.5086 8.12279C51.0376 7.69125 51.3021 7.13443 51.3021 6.45231C51.3021 5.71452 51.0097 5.13681 50.4251 4.71919C49.8404 4.28765 49.0121 4.07188 47.9402 4.07188C46.4646 4.07188 45.0447 4.43381 43.6805 5.15769V3.44545C44.989 2.77725 46.4855 2.44316 48.1699 2.44316C49.6177 2.44316 50.78 2.79813 51.657 3.50809C52.548 4.21804 52.9934 5.15073 52.9934 6.30615ZM54.7456 2.69373H64.9773V4.28069L59.0471 16.8928H57.1678L63.0563 4.36421H54.7456V2.69373ZM65.4385 7.86399e-05H67.0672C67.9999 1.35038 68.7377 2.8747 69.2806 4.57302C69.8235 6.25742 70.095 7.92791 70.095 9.58447C70.095 11.241 69.8235 12.9185 69.2806 14.6168C68.7377 16.3012 67.9999 17.8185 67.0672 19.1689H65.4385C66.3155 17.8603 66.9976 16.3499 67.4848 14.6377C67.9721 12.9254 68.2157 11.241 68.2157 9.58447C68.2157 7.92791 67.9721 6.2435 67.4848 4.53126C66.9976 2.81902 66.3155 1.30862 65.4385 7.86399e-05ZM86.0295 6.30615C86.0295 7.03002 85.8346 7.68429 85.4448 8.26896C85.0689 8.83971 84.5748 9.22949 83.9622 9.4383C84.6861 9.66103 85.3056 10.0717 85.8207 10.6703C86.3496 11.2549 86.6141 12.0415 86.6141 13.0298C86.6141 14.3523 86.12 15.3685 85.1316 16.0785C84.1571 16.7884 82.9182 17.1434 81.4148 17.1434C79.5076 17.1434 77.858 16.8302 76.466 16.2037V14.4706C77.8163 15.1667 79.4171 15.5077 81.2686 15.4938C83.7047 15.4938 84.9228 14.6446 84.9228 12.9463C84.9228 11.248 83.7674 10.3988 81.4565 10.3988H79.2849V8.72834L81.2686 8.74923C82.2709 8.74923 83.0296 8.54041 83.5446 8.12279C84.0736 7.69125 84.3381 7.13443 84.3381 6.45231C84.3381 5.71452 84.0458 5.13681 83.4611 4.71919C82.8764 4.28765 82.0482 4.07188 80.9763 4.07188C79.5007 4.07188 78.0808 4.43381 76.7165 5.15769V3.44545C78.0251 2.77725 79.5216 2.44316 81.206 2.44316C82.6537 2.44316 83.8161 2.79813 84.6931 3.50809C85.584 4.21804 86.0295 5.15073 86.0295 6.30615ZM97.8672 6.30615C97.8672 7.03002 97.6723 7.68429 97.2825 8.26896C96.9067 8.83971 96.4125 9.22949 95.8 9.4383C96.5239 9.66103 97.1433 10.0717 97.6584 10.6703C98.1874 11.2549 98.4519 12.0415 98.4519 13.0298C98.4519 14.3523 97.9577 15.3685 96.9693 16.0785C95.9949 16.7884 94.7559 17.1434 93.2525 17.1434C91.3454 17.1434 89.6958 16.8302 88.3037 16.2037V14.4706C89.654 15.1667 91.2549 15.5077 93.1063 15.4938C95.5425 15.4938 96.7605 14.6446 96.7605 12.9463C96.7605 11.248 95.6051 10.3988 93.2943 10.3988H91.1226V8.72834L93.1063 8.74923C94.1086 8.74923 94.8673 8.54041 95.3824 8.12279C95.9114 7.69125 96.1759 7.13443 96.1759 6.45231C96.1759 5.71452 95.8835 5.13681 95.2988 4.71919C94.7142 4.28765 93.8859 4.07188 92.814 4.07188C91.3384 4.07188 89.9185 4.43381 88.5543 5.15769V3.44545C89.8628 2.77725 91.3593 2.44316 93.0437 2.44316C94.4915 2.44316 95.6538 2.79813 96.5308 3.50809C97.4218 4.21804 97.8672 5.15073 97.8672 6.30615ZM109.705 6.30615C109.705 7.03002 109.51 7.68429 109.12 8.26896C108.744 8.83971 108.25 9.22949 107.638 9.4383C108.362 9.66103 108.981 10.0717 109.496 10.6703C110.025 11.2549 110.29 12.0415 110.29 13.0298C110.29 14.3523 109.795 15.3685 108.807 16.0785C107.833 16.7884 106.594 17.1434 105.09 17.1434C103.183 17.1434 101.534 16.8302 100.141 16.2037V14.4706C101.492 15.1667 103.093 15.5077 104.944 15.4938C107.38 15.4938 108.598 14.6446 108.598 12.9463C108.598 11.248 107.443 10.3988 105.132 10.3988H102.96V8.72834L104.944 8.74923C105.946 8.74923 106.705 8.54041 107.22 8.12279C107.749 7.69125 108.014 7.13443 108.014 6.45231C108.014 5.71452 107.721 5.13681 107.137 4.71919C106.552 4.28765 105.724 4.07188 104.652 4.07188C103.176 4.07188 101.756 4.43381 100.392 5.15769V3.44545C101.701 2.77725 103.197 2.44316 104.881 2.44316C106.329 2.44316 107.492 2.79813 108.369 3.50809C109.259 4.21804 109.705 5.15073 109.705 6.30615ZM112.23 10.9209H119.684V12.5078H112.23V10.9209ZM122.267 2.69373H130.787V4.36421H123.917L123.666 8.37337C124.418 8.16456 125.225 8.06015 126.089 8.06015C126.799 8.06015 127.46 8.14368 128.072 8.31072C128.685 8.46385 129.249 8.71442 129.764 9.06244C130.293 9.39654 130.71 9.86984 131.016 10.4823C131.323 11.0809 131.476 11.7909 131.476 12.6122C131.476 14.0182 130.954 15.1249 129.91 15.9323C128.88 16.7397 127.564 17.1434 125.963 17.1434C124.237 17.1434 122.72 16.8232 121.411 16.1829V14.5124C122.664 15.1806 124.112 15.5147 125.754 15.5147C126.952 15.5147 127.905 15.2641 128.615 14.763C129.339 14.2618 129.701 13.5449 129.701 12.6122C129.701 10.6355 128.295 9.64711 125.483 9.64711C124.258 9.64711 123.033 9.86984 121.808 10.3153L122.267 2.69373ZM133.942 2.69373H142.461V4.36421H135.592L135.341 8.37337C136.093 8.16456 136.9 8.06015 137.763 8.06015C138.473 8.06015 139.134 8.14368 139.747 8.31072C140.359 8.46385 140.923 8.71442 141.438 9.06244C141.967 9.39654 142.385 9.86984 142.691 10.4823C142.997 11.0809 143.15 11.7909 143.15 12.6122C143.15 14.0182 142.628 15.1249 141.584 15.9323C140.554 16.7397 139.239 17.1434 137.638 17.1434C135.912 17.1434 134.394 16.8232 133.086 16.1829V14.5124C134.339 15.1806 135.786 15.5147 137.429 15.5147C138.626 15.5147 139.58 15.2641 140.29 14.763C141.014 14.2618 141.376 13.5449 141.376 12.6122C141.376 10.6355 139.97 9.64711 137.158 9.64711C135.933 9.64711 134.708 9.86984 133.483 10.3153L133.942 2.69373ZM144.99 10.9209H152.445V12.5078H144.99V10.9209ZM163.347 6.30615C163.347 7.03002 163.152 7.68429 162.762 8.26896C162.387 8.83971 161.892 9.22949 161.28 9.4383C162.004 9.66103 162.623 10.0717 163.138 10.6703C163.667 11.2549 163.932 12.0415 163.932 13.0298C163.932 14.3523 163.438 15.3685 162.449 16.0785C161.475 16.7884 160.236 17.1434 158.732 17.1434C156.825 17.1434 155.176 16.8302 153.784 16.2037V14.4706C155.134 15.1667 156.735 15.5077 158.586 15.4938C161.022 15.4938 162.24 14.6446 162.24 12.9463C162.24 11.248 161.085 10.3988 158.774 10.3988H156.603V8.72834L158.586 8.74923C159.589 8.74923 160.347 8.54041 160.862 8.12279C161.391 7.69125 161.656 7.13443 161.656 6.45231C161.656 5.71452 161.363 5.13681 160.779 4.71919C160.194 4.28765 159.366 4.07188 158.294 4.07188C156.818 4.07188 155.398 4.43381 154.034 5.15769V3.44545C155.343 2.77725 156.839 2.44316 158.524 2.44316C159.971 2.44316 161.134 2.79813 162.011 3.50809C162.902 4.21804 163.347 5.15073 163.347 6.30615ZM175.185 6.30615C175.185 7.03002 174.99 7.68429 174.6 8.26896C174.224 8.83971 173.73 9.22949 173.118 9.4383C173.842 9.66103 174.461 10.0717 174.976 10.6703C175.505 11.2549 175.77 12.0415 175.77 13.0298C175.77 14.3523 175.275 15.3685 174.287 16.0785C173.313 16.7884 172.074 17.1434 170.57 17.1434C168.663 17.1434 167.013 16.8302 165.621 16.2037V14.4706C166.972 15.1667 168.573 15.5077 170.424 15.4938C172.86 15.4938 174.078 14.6446 174.078 12.9463C174.078 11.248 172.923 10.3988 170.612 10.3988H168.44V8.72834L170.424 8.74923C171.426 8.74923 172.185 8.54041 172.7 8.12279C173.229 7.69125 173.494 7.13443 173.494 6.45231C173.494 5.71452 173.201 5.13681 172.617 4.71919C172.032 4.28765 171.204 4.07188 170.132 4.07188C168.656 4.07188 167.236 4.43381 165.872 5.15769V3.44545C167.18 2.77725 168.677 2.44316 170.361 2.44316C171.809 2.44316 172.971 2.79813 173.849 3.50809C174.739 4.21804 175.185 5.15073 175.185 6.30615Z" fill="url(#paint0_linear_32_51)"/>
<defs>
<linearGradient id="paint0_linear_32_51" x1="171.166" y1="-2.10718" x2="95.6008" y2="82.7533" gradientUnits="userSpaceOnUse">
<stop stop-color="#FF612E"/>
<stop offset="1" stop-color="#FFA32B"/>
</linearGradient>
</defs>
</svg>
